<svg width="744" height="112" fill="none" xmlns="http://www.w3.org/2000/svg"><path fill-rule="evenodd" clip-rule="evenodd" d="M109.375 0h30.381l-68.58 65.948 44.76 44.834h-29.16L44.314 65.948 109.375 0zm19.492 23.86h92.048v87.446h-92.048V23.861zm23.012 17.49v52.467h46.024V41.35h-46.024zm82.847-17.489h23.626l20.25 55.266 20.251-55.266h23.626l20.25 55.266L362.98 23.86h23.625l-32.063 87.446h-23.626l-20.25-55.266-20.251 55.266H266.79L234.726 23.86zm188.954 0h-24.163v87.447h24.163V23.862zm-368.451 0h-23.67L0 111.307h23.67l31.559-87.446zm480.582 0h-23.669L499.6 58.614 466.299 23.86h-29.441l44.161 43.723h15.343l-15.779 43.723h23.669l31.559-87.446z" fill="#F05634"/><path d="M593.34 23.861v6.904h-25.313v32.217h18.409V50.325h-9.205v-6.904h16.109v26.464h-32.217V23.861h32.217zm5.79 29.916c0-4.45 1.457-8.238 4.372-11.368 2.915-3.16 6.444-4.74 10.586-4.74 4.019 0 7.471 1.488 10.355 4.464v-4.465h6.904v32.217h-6.904v-4.464c-2.884 2.976-6.336 4.464-10.355 4.464-4.142 0-7.671-1.565-10.586-4.694-2.915-3.16-4.372-6.965-4.372-11.414zm6.904 0c0 2.547.889 4.725 2.669 6.535 1.81 1.78 3.989 2.67 6.535 2.67 2.547 0 4.71-.89 6.49-2.67 1.81-1.81 2.715-3.988 2.715-6.535s-.905-4.71-2.715-6.49c-1.78-1.81-3.943-2.715-6.49-2.715-2.546 0-4.725.905-6.535 2.715-1.78 1.78-2.669 3.943-2.669 6.49zm70.223-16.108c.645 0 1.182.23 1.611.69.46.43.69.966.69 1.61v29.916h-6.903V44.572h-10.356v25.313h-6.903V44.572H644.04v25.313h-6.903V37.668h39.12zm12.859 4.694c3.13-3.13 6.934-4.694 11.414-4.694 4.449 0 8.238 1.564 11.368 4.694 3.129 3.13 4.694 6.919 4.694 11.368 0 1.227-.122 2.393-.368 3.498h-24.301c.43 1.104 1.12 2.117 2.071 3.037 1.78 1.81 3.943 2.716 6.49 2.716s4.725-.905 6.535-2.716c.246-.245.476-.49.691-.736h7.87c-.798 2.056-2.025 3.927-3.682 5.615-3.13 3.16-6.919 4.74-11.368 4.74-4.48 0-8.3-1.58-11.46-4.74-3.13-3.16-4.695-6.965-4.695-11.414 0-4.45 1.581-8.238 4.741-11.368zm2.807 7.962h17.121c-.429-1.135-1.104-2.163-2.025-3.084-1.81-1.78-3.988-2.669-6.535-2.669s-4.71.89-6.49 2.67c-.951.92-1.641 1.948-2.071 3.083zm51.17-12.656v6.903h-14.359l14.359 18.41v6.903h-23.012v-6.903h14.866l-14.866-18.41v-6.904h23.012z" fill="#181818"/></svg>