<svg width="259" height="87" fill="none" xmlns="http://www.w3.org/2000/svg"><path fill-rule="evenodd" clip-rule="evenodd" d="M53.4 0h14.647L34.982 31.796l21.58 21.616H42.504L22.03 31.796 53.4 0zm9.397 11.504h44.38v42.161h-44.38v-42.16zm11.095 8.432v25.297h22.19V19.936h-22.19zm39.943-8.432h11.391l9.763 26.646 9.764-26.646h11.391l9.763 26.646 9.764-26.646h11.391l-15.459 42.161h-11.391l-9.764-26.645-9.763 26.645h-11.391l-15.459-42.16zm91.103 0h-11.65v42.162h11.65V11.505zm-177.645 0H15.88L.665 53.665h11.412l15.216-42.16zm231.708 0h-11.412l-6.047 16.756-16.056-16.756h-14.195l21.292 21.08h7.398l-7.608 21.081h11.412l15.216-42.16z" fill="#F05634"/><path d="M102.034 64.552v3.328H89.829v15.533h8.876v-6.102h-4.438v-3.329h7.767v12.76H86.501v-22.19h15.533zm2.792 14.423c0-2.145.702-3.972 2.108-5.48 1.405-1.524 3.106-2.286 5.103-2.286 1.938 0 3.602.717 4.993 2.152V71.21h3.328v15.533h-3.328V84.59c-1.391 1.435-3.055 2.153-4.993 2.153-1.997 0-3.698-.755-5.103-2.264-1.406-1.523-2.108-3.358-2.108-5.503zm3.328 0c0 1.228.429 2.278 1.287 3.151.873.858 1.923 1.287 3.151 1.287 1.228 0 2.271-.429 3.129-1.287.873-.873 1.309-1.923 1.309-3.15 0-1.229-.436-2.272-1.309-3.13-.858-.872-1.901-1.309-3.129-1.309s-2.278.437-3.151 1.31c-.858.858-1.287 1.9-1.287 3.128zm33.857-7.766c.311 0 .57.11.777.333.222.207.333.466.333.776v14.424h-3.329V74.537H134.8v12.205h-3.329V74.537h-4.992v12.205h-3.329V71.209h18.861zm6.2 2.263c1.509-1.509 3.343-2.263 5.503-2.263 2.145 0 3.972.754 5.481 2.263 1.509 1.51 2.264 3.336 2.264 5.481 0 .592-.06 1.154-.178 1.686h-11.716c.207.533.54 1.021.998 1.465.858.873 1.901 1.31 3.129 1.31s2.278-.437 3.151-1.31c.118-.118.229-.237.333-.355h3.794c-.384.991-.976 1.894-1.775 2.707-1.509 1.524-3.336 2.286-5.481 2.286-2.16 0-4.001-.762-5.525-2.286-1.509-1.523-2.263-3.358-2.263-5.503s.761-3.972 2.285-5.48zm1.354 3.839h8.254a4.182 4.182 0 00-.976-1.487c-.873-.858-1.923-1.287-3.151-1.287-1.228 0-2.271.43-3.129 1.287a4.07 4.07 0 00-.998 1.487zm24.671-6.102v3.328h-6.924l6.924 8.876v3.329h-11.095v-3.329h7.167l-7.167-8.876V71.21h11.095z" fill="#181818"/></svg>