<svg width="266" height="41" fill="none" xmlns="http://www.w3.org/2000/svg"><path fill-rule="evenodd" clip-rule="evenodd" d="M39.153.662h10.875l-24.55 23.606 16.023 16.05H31.063l-15.2-16.05L39.153.662zm6.977 8.54h32.95v31.303H46.13V9.203zm8.237 6.261v18.782h16.475V15.463H54.367zm29.656-6.26h8.457l7.25 19.783 7.248-19.783h8.457l7.249 19.783 7.249-19.783h8.457l-11.477 31.303h-8.457l-7.249-19.783-7.249 19.783h-8.457L84.023 9.203zm67.639 0h-8.649v31.303h8.649V9.204zm-131.892 0h-8.473L0 40.506h8.473L19.77 9.203zm172.031 0h-8.473l-4.49 12.44-11.92-12.44h-10.539l15.808 15.652h5.492l-5.648 15.65h8.473l11.297-31.302z" fill="#F05634"/><path d="M212.394 9.203v2.472h-9.061v11.532h6.59v-4.53h-3.295v-2.472h5.766v9.473h-11.532V9.203h11.532zm2.073 10.709c0-1.592.522-2.949 1.565-4.07 1.043-1.13 2.306-1.696 3.789-1.696 1.439 0 2.675.532 3.707 1.598v-1.598h2.471v11.532h-2.471V24.08c-1.032 1.066-2.268 1.598-3.707 1.598-1.483 0-2.746-.56-3.789-1.68-1.043-1.131-1.565-2.493-1.565-4.086zm2.471 0c0 .912.319 1.692.956 2.34a3.215 3.215 0 002.339.955c.912 0 1.686-.319 2.323-.956a3.19 3.19 0 00.972-2.339c0-.912-.324-1.686-.972-2.323a3.135 3.135 0 00-2.323-.972c-.912 0-1.691.324-2.339.972-.637.637-.956 1.412-.956 2.323zm25.138-5.766c.23 0 .422.082.576.247a.755.755 0 01.247.577v10.708h-2.471v-9.06h-3.707v9.06h-2.471v-9.06h-3.707v9.06h-2.471V14.146h14.004zm4.603 1.68c1.12-1.12 2.482-1.68 4.085-1.68 1.593 0 2.949.56 4.07 1.68 1.12 1.12 1.68 2.477 1.68 4.07 0 .439-.044.856-.132 1.252h-8.698c.153.395.4.758.741 1.087a3.135 3.135 0 002.323.972 3.19 3.19 0 002.339-.972 4.93 4.93 0 00.247-.264h2.818a5.913 5.913 0 01-1.318 2.01c-1.121 1.132-2.477 1.697-4.07 1.697-1.603 0-2.971-.565-4.102-1.697-1.12-1.13-1.68-2.493-1.68-4.085 0-1.593.565-2.95 1.697-4.07zm1.005 2.85h6.128a3.106 3.106 0 00-.725-1.103 3.217 3.217 0 00-2.339-.956c-.912 0-1.686.319-2.323.956-.341.33-.588.697-.741 1.103zM266 14.146v2.471h-5.14l5.14 6.59v2.471h-8.237v-2.471h5.321l-5.321-6.59v-2.471H266z" fill="#fff"/></svg>