<svg width="32" height="32" fill="none" xmlns="http://www.w3.org/2000/svg"><path d="M16 32c8.837 0 16-7.163 16-16S24.837 0 16 0 0 7.163 0 16s7.163 16 16 16z" fill="#46ABF4"/><path d="M24.864 11.333a8.02 8.02 0 01-.265.036c-.013.002-.026-.003-.058-.008a4.336 4.336 0 001.092-.911c.303-.36.538-.772.694-1.216l-.362.182a9.141 9.141 0 01-2.19.742c-.089.02-.141-.001-.209-.063a4.299 4.299 0 00-2.52-1.113c-.018-.003-.036-.014-.054-.022h-.82c-.212.038-.425.07-.634.118-.967.228-1.749.714-2.339 1.453-.73.917-.966 1.944-.747 3.061l.009.046.007.078a12.542 12.542 0 01-4.778-1.177 11.84 11.84 0 01-3.865-2.883c-.547.896-.704 1.833-.469 2.819.237.985.828 1.762 1.72 2.349l-.018.038c-.313-.055-.633-.09-.94-.171-.304-.08-.594-.204-.889-.308-.071 1.476 1.032 3.342 3.326 3.834a4.705 4.705 0 01-1.847.061c.244.948 1.528 2.62 3.884 2.713-.186.123-.35.239-.52.343a8.855 8.855 0 01-3.661 1.241 9.623 9.623 0 01-1.9.017c-.037-.003-.074-.013-.111-.02v.023a12.57 12.57 0 005.244 1.683c.113.01.224.028.337.042h1.766l.35-.038a12.481 12.481 0 004.262-1.123c.93-.437 1.796-1 2.573-1.672a11.25 11.25 0 002.777-3.61c.494-1.01.826-2.064.989-3.16.09-.609.13-1.22.1-1.836a.191.191 0 01.076-.144 8.474 8.474 0 001.764-1.63l.242-.304v-.023a9.294 9.294 0 01-2.016.553z" fill="#fff"/></svg>