<svg width="32" height="32" fill="none" xmlns="http://www.w3.org/2000/svg"><path d="M16 32c8.837 0 16-7.163 16-16S24.837 0 16 0 0 7.163 0 16s7.163 16 16 16z" fill="red"/><path fill-rule="evenodd" clip-rule="evenodd" d="M24.502 9.407a2.7 2.7 0 011.924 1.889c.454 1.667.454 5.144.454 5.144s0 3.477-.454 5.145a2.7 2.7 0 01-1.924 1.889c-1.697.447-8.502.447-8.502.447s-6.804 0-8.502-.448a2.701 2.701 0 01-1.923-1.888c-.455-1.668-.455-5.146-.455-5.146s0-3.476.455-5.143a2.7 2.7 0 011.923-1.89C9.196 8.96 16 8.96 16 8.96s6.805 0 8.502.447zm-5.04 7.033l-5.687 3.157v-6.315l5.687 3.158z" fill="#fff"/></svg>